<?xml version="1.0" encoding="UTF-8"?><svg xmlns="http://www.w3.org/2000/svg" xmlns:xlink="http://www.w3.org/1999/xlink" fill-opacity="1" color-rendering="auto" color-interpolation="auto" text-rendering="auto" stroke="black" stroke-linecap="square" width="871" stroke-miterlimit="10" shape-rendering="auto" stroke-opacity="1" fill="black" stroke-dasharray="none" font-weight="normal" stroke-width="1" height="433" font-family="'Dialog'" font-style="normal" stroke-linejoin="miter" font-size="12px" stroke-dashoffset="0" image-rendering="auto">
  <!--Generated by ySVG 2.5-->
  <defs id="genericDefs"/>
  <g>
    <defs id="defs1">
      <clipPath clipPathUnits="userSpaceOnUse" id="clipPath1">
        <path d="M0 0 L871 0 L871 433 L0 433 L0 0 Z"/>
      </clipPath>
      <clipPath clipPathUnits="userSpaceOnUse" id="clipPath2">
        <path d="M-88 76 L783 76 L783 509 L-88 509 L-88 76 Z"/>
      </clipPath>
      <clipPath clipPathUnits="userSpaceOnUse" id="clipPath3">
        <path d="M-92 72 L779 72 L779 505 L-92 505 L-92 72 Z"/>
      </clipPath>
    </defs>
    <g fill="white" text-rendering="geometricPrecision" shape-rendering="geometricPrecision" transform="translate(88,-76)" stroke="white">
      <rect x="-88" width="871" height="433" y="76" clip-path="url(#clipPath2)" stroke="none"/>
    </g>
    <g fill="rgb(245,245,245)" text-rendering="geometricPrecision" shape-rendering="geometricPrecision" transform="matrix(1,0,0,1,88,-76)" stroke="rgb(245,245,245)">
      <rect x="-72.0781" y="106.1294" clip-path="url(#clipPath2)" width="371" rx="4" ry="4" height="387.1436" stroke="none"/>
      <rect x="-72.0781" y="106.1294" clip-path="url(#clipPath2)" fill="rgb(235,235,235)" width="371" height="22.3765" stroke="none"/>
    </g>
    <g font-size="15px" stroke-linecap="butt" transform="matrix(1,0,0,1,88,-76)" text-rendering="geometricPrecision" font-family="sans-serif" shape-rendering="geometricPrecision" stroke-miterlimit="1.45">
      <text x="194.3901" xml:space="preserve" y="123.21" clip-path="url(#clipPath2)" stroke="none">(string) Context</text>
      <rect x="-72.0781" y="106.1294" clip-path="url(#clipPath2)" fill="none" width="371" stroke-dasharray="6,2" rx="4" ry="4" height="387.1436"/>
    </g>
    <g fill="rgb(210,210,210)" text-rendering="geometricPrecision" shape-rendering="geometricPrecision" transform="matrix(1,0,0,1,88,-76) translate(4,4)" stroke="rgb(210,210,210)">
      <rect x="-57.0781" width="215.9219" height="153.5059" y="224.3506" clip-path="url(#clipPath3)" stroke="none"/>
    </g>
    <g fill="rgb(222,220,196)" text-rendering="geometricPrecision" shape-rendering="geometricPrecision" transform="matrix(1,0,0,1,88,-76)" stroke="rgb(222,220,196)">
      <rect x="-57.0781" width="215.9219" height="153.5059" y="224.3506" clip-path="url(#clipPath2)" stroke="none"/>
      <rect x="-57.0781" y="224.3506" clip-path="url(#clipPath2)" fill="rgb(0,204,255)" width="215.9219" height="22.3765" stroke="none"/>
    </g>
    <g font-size="15px" stroke-linecap="butt" transform="matrix(1,0,0,1,88,-76)" text-rendering="geometricPrecision" font-family="sans-serif" shape-rendering="geometricPrecision" font-weight="bold" stroke-miterlimit="1.45">
      <text x="122.6909" xml:space="preserve" y="241.4312" clip-path="url(#clipPath2)" stroke="none">Root</text>
      <rect fill="none" x="-57.0781" width="215.9219" height="153.5059" y="224.3506" clip-path="url(#clipPath2)"/>
    </g>
    <g fill="rgb(255,204,0)" text-rendering="geometricPrecision" shape-rendering="geometricPrecision" transform="matrix(1,0,0,1,88,-76)" stroke="rgb(255,204,0)">
      <rect x="-40.0781" width="158" height="30" y="284.4282" clip-path="url(#clipPath2)" stroke="none"/>
    </g>
    <g text-rendering="geometricPrecision" stroke-miterlimit="1.45" shape-rendering="geometricPrecision" transform="matrix(1,0,0,1,88,-76)" stroke-linecap="butt">
      <rect fill="none" x="-40.0781" width="158" height="30" y="284.4282" clip-path="url(#clipPath2)"/>
      <text x="-34.0781" xml:space="preserve" y="304.1421" clip-path="url(#clipPath2)" font-family="sans-serif" stroke="none">scheme://host/path/to/root/</text>
      <text x="-34.0781" y="275.7915" clip-path="url(#clipPath2)" font-family="sans-serif" font-style="italic" stroke="none" font-weight="bold" xml:space="preserve">mountUri</text>
    </g>
    <g fill="rgb(255,204,0)" text-rendering="geometricPrecision" shape-rendering="geometricPrecision" transform="matrix(1,0,0,1,88,-76)" stroke="rgb(255,204,0)">
      <rect x="-14.1562" width="158" height="30" y="332.3506" clip-path="url(#clipPath2)" stroke="none"/>
    </g>
    <g text-rendering="geometricPrecision" stroke-miterlimit="1.45" shape-rendering="geometricPrecision" transform="matrix(1,0,0,1,88,-76)" stroke-linecap="butt">
      <rect fill="none" x="-14.1562" width="158" height="30" y="332.3506" clip-path="url(#clipPath2)"/>
      <text x="-8.1562" xml:space="preserve" y="352.0645" clip-path="url(#clipPath2)" font-family="sans-serif" stroke="none">sub/subsub</text>
    </g>
    <g fill="rgb(0,204,255)" text-rendering="geometricPrecision" shape-rendering="geometricPrecision" transform="matrix(1,0,0,1,88,-76)" stroke="rgb(0,204,255)">
      <rect x="69.9219" width="214" height="30" y="448.2729" clip-path="url(#clipPath2)" stroke="none"/>
    </g>
    <g text-rendering="geometricPrecision" stroke-miterlimit="1.45" shape-rendering="geometricPrecision" transform="matrix(1,0,0,1,88,-76)" stroke-linecap="butt">
      <rect fill="none" x="69.9219" width="214" height="30" y="448.2729" clip-path="url(#clipPath2)"/>
      <text x="163.9199" y="467.9868" clip-path="url(#clipPath2)" font-family="sans-serif" font-style="italic" stroke="none" font-weight="bold" xml:space="preserve">Path</text>
    </g>
    <g fill="rgb(255,204,0)" text-rendering="geometricPrecision" shape-rendering="geometricPrecision" transform="matrix(1,0,0,1,88,-76)" stroke="rgb(255,204,0)">
      <rect x="69.9219" width="214" height="30" y="158.5059" clip-path="url(#clipPath2)" stroke="none"/>
    </g>
    <g text-rendering="geometricPrecision" stroke-miterlimit="1.45" shape-rendering="geometricPrecision" transform="matrix(1,0,0,1,88,-76)" stroke-linecap="butt">
      <rect fill="none" x="69.9219" width="214" height="30" y="158.5059" clip-path="url(#clipPath2)"/>
      <text x="75.9219" xml:space="preserve" y="178.2197" clip-path="url(#clipPath2)" font-family="sans-serif" stroke="none">scheme://host/path/to/root/sub/subsub</text>
      <rect x="334.6719" y="264.8894" clip-path="url(#clipPath2)" fill="none" width="147" rx="4" ry="4" height="30"/>
      <text x="349.8359" y="284.6033" clip-path="url(#clipPath2)" font-family="sans-serif" font-style="italic" stroke="none" font-weight="bold" xml:space="preserve">UriMapper::mapUri()</text>
      <path fill="none" d="M-40.0781 314.4508 L-40.0781 347.3506 L-14.1562 347.3506" stroke-width="2" clip-path="url(#clipPath2)" stroke="rgb(153,51,102)"/>
    </g>
    <g stroke-linecap="butt" transform="matrix(1,0,0,1,88,-76)" fill="gray" text-rendering="geometricPrecision" shape-rendering="geometricPrecision" stroke-dasharray="12,4" stroke="gray" stroke-width="2" stroke-miterlimit="1.45">
      <path fill="none" d="M21.2395 377.8839 L21.2395 463.2729 L60.9219 463.2729" clip-path="url(#clipPath2)"/>
      <path d="M69.9219 463.2729 L56.4219 457.6479 L59.7969 463.2729 L56.4219 468.8979 Z" clip-path="url(#clipPath2)" stroke="none"/>
    </g>
    <g stroke-linecap="butt" transform="matrix(1,0,0,1,88,-76)" fill="gray" text-rendering="geometricPrecision" font-family="sans-serif" shape-rendering="geometricPrecision" font-style="italic" stroke="gray" font-weight="bold" stroke-miterlimit="1.45">
      <text x="-40.5477" xml:space="preserve" y="433.0164" clip-path="url(#clipPath2)" stroke="none">getPath()</text>
    </g>
    <g text-rendering="geometricPrecision" stroke-miterlimit="1.45" shape-rendering="geometricPrecision" transform="matrix(1,0,0,1,88,-76)" stroke-linecap="butt">
      <path fill="none" d="M162.4193 448.2729 L84.9121 368.1073" clip-path="url(#clipPath2)"/>
      <path d="M79.3514 362.3559 L84.0979 374.4584 L85.6072 368.8262 L91.2871 367.5076 Z" clip-path="url(#clipPath2)" stroke="none"/>
      <path fill="none" stroke-dasharray="12,4" d="M209.5261 188.505 L367.381 261.1241" stroke-width="2" clip-path="url(#clipPath2)"/>
      <path stroke-dasharray="12,4" d="M375.5573 264.8855 L365.6437 254.1332 L366.359 260.6539 L360.942 264.3536 Z" stroke-width="2" clip-path="url(#clipPath2)" stroke="none"/>
      <path fill="none" stroke-dasharray="12,4" d="M389.2304 294.9102 L202.8669 442.6983" stroke-width="2" clip-path="url(#clipPath2)"/>
      <path stroke-dasharray="12,4" d="M195.815 448.2905 L209.8878 444.3096 L203.7483 441.9993 L202.8977 435.4949 Z" stroke-width="2" clip-path="url(#clipPath2)" stroke="none"/>
    </g>
    <g fill="rgb(245,245,245)" text-rendering="geometricPrecision" shape-rendering="geometricPrecision" transform="matrix(1,0,0,1,88,-76)" stroke="rgb(245,245,245)">
      <rect x="517.4219" y="91.1294" clip-path="url(#clipPath2)" width="250.3438" rx="4" ry="4" height="402.1436" stroke="none"/>
      <rect x="517.4219" y="91.1294" clip-path="url(#clipPath2)" fill="rgb(235,235,235)" width="250.3438" height="22.3765" stroke="none"/>
    </g>
    <g font-size="15px" stroke-linecap="butt" transform="matrix(1,0,0,1,88,-76)" text-rendering="geometricPrecision" font-family="sans-serif" shape-rendering="geometricPrecision" stroke-miterlimit="1.45">
      <text x="663.2339" xml:space="preserve" y="108.21" clip-path="url(#clipPath2)" stroke="none">(string) Context</text>
      <rect x="517.4219" y="91.1294" clip-path="url(#clipPath2)" fill="none" width="250.3438" stroke-dasharray="6,2" rx="4" ry="4" height="402.1436"/>
    </g>
    <g fill="rgb(0,204,255)" text-rendering="geometricPrecision" shape-rendering="geometricPrecision" transform="matrix(1,0,0,1,88,-76)" stroke="rgb(0,204,255)">
      <rect x="534.7656" width="214" height="30" y="448.2729" clip-path="url(#clipPath2)" stroke="none"/>
    </g>
    <g text-rendering="geometricPrecision" stroke-miterlimit="1.45" shape-rendering="geometricPrecision" transform="matrix(1,0,0,1,88,-76)" stroke-linecap="butt">
      <rect fill="none" x="534.7656" width="214" height="30" y="448.2729" clip-path="url(#clipPath2)"/>
      <text x="628.7637" y="467.9868" clip-path="url(#clipPath2)" font-family="sans-serif" font-style="italic" stroke="none" font-weight="bold" xml:space="preserve">Path</text>
      <path fill="none" stroke-dasharray="12,4" d="M292.9219 463.2729 L525.7656 463.2729" stroke-width="2" clip-path="url(#clipPath2)"/>
      <path stroke-dasharray="12,4" d="M283.9219 463.2729 L297.4219 468.8979 L294.0469 463.2729 L297.4219 457.6479 Z" stroke-width="2" clip-path="url(#clipPath2)" stroke="none"/>
      <path stroke-dasharray="12,4" d="M534.7656 463.2729 L521.2656 457.6479 L524.6406 463.2729 L521.2656 468.8979 Z" stroke-width="2" clip-path="url(#clipPath2)" stroke="none"/>
      <text x="377.3516" y="459.9421" clip-path="url(#clipPath2)" font-family="sans-serif" font-style="italic" stroke="none" font-weight="bold" xml:space="preserve">toContext()</text>
    </g>
    <g fill="rgb(210,210,210)" text-rendering="geometricPrecision" shape-rendering="geometricPrecision" transform="matrix(1,0,0,1,88,-76) translate(4,4)" stroke="rgb(210,210,210)">
      <rect x="532.8438" width="215.9219" height="153.5059" y="226.0259" clip-path="url(#clipPath3)" stroke="none"/>
    </g>
    <g fill="rgb(222,220,196)" text-rendering="geometricPrecision" shape-rendering="geometricPrecision" transform="matrix(1,0,0,1,88,-76)" stroke="rgb(222,220,196)">
      <rect x="532.8438" width="215.9219" height="153.5059" y="226.0259" clip-path="url(#clipPath2)" stroke="none"/>
      <rect x="532.8438" y="226.0259" clip-path="url(#clipPath2)" fill="rgb(0,204,255)" width="215.9219" height="22.3765" stroke="none"/>
    </g>
    <g font-size="15px" stroke-linecap="butt" transform="matrix(1,0,0,1,88,-76)" text-rendering="geometricPrecision" font-family="sans-serif" shape-rendering="geometricPrecision" font-weight="bold" stroke-miterlimit="1.45">
      <text x="712.6128" xml:space="preserve" y="243.1064" clip-path="url(#clipPath2)" stroke="none">Root</text>
      <rect fill="none" x="532.8438" width="215.9219" height="153.5059" y="226.0259" clip-path="url(#clipPath2)"/>
    </g>
    <g fill="rgb(255,204,0)" text-rendering="geometricPrecision" shape-rendering="geometricPrecision" transform="matrix(1,0,0,1,88,-76)" stroke="rgb(255,204,0)">
      <rect x="549.8438" width="158" height="30" y="286.1035" clip-path="url(#clipPath2)" stroke="none"/>
    </g>
    <g text-rendering="geometricPrecision" stroke-miterlimit="1.45" shape-rendering="geometricPrecision" transform="matrix(1,0,0,1,88,-76)" stroke-linecap="butt">
      <rect fill="none" x="549.8438" width="158" height="30" y="286.1035" clip-path="url(#clipPath2)"/>
      <text x="555.8438" xml:space="preserve" y="305.8174" clip-path="url(#clipPath2)" font-family="sans-serif" stroke="none">/other/context/root/path</text>
      <text x="555.8438" y="277.4668" clip-path="url(#clipPath2)" font-family="sans-serif" font-style="italic" stroke="none" font-weight="bold" xml:space="preserve">mountUri</text>
    </g>
    <g fill="rgb(255,204,0)" text-rendering="geometricPrecision" shape-rendering="geometricPrecision" transform="matrix(1,0,0,1,88,-76)" stroke="rgb(255,204,0)">
      <rect x="575.7656" width="158" height="30" y="334.0259" clip-path="url(#clipPath2)" stroke="none"/>
    </g>
    <g text-rendering="geometricPrecision" stroke-miterlimit="1.45" shape-rendering="geometricPrecision" transform="matrix(1,0,0,1,88,-76)" stroke-linecap="butt">
      <rect fill="none" x="575.7656" width="158" height="30" y="334.0259" clip-path="url(#clipPath2)"/>
      <text x="581.7656" xml:space="preserve" y="353.7397" clip-path="url(#clipPath2)" font-family="sans-serif" stroke="none">sub1/subsub</text>
      <path fill="none" d="M549.8438 316.1261 L549.8438 349.0259 L575.7656 349.0259" stroke-width="2" clip-path="url(#clipPath2)" stroke="rgb(153,51,102)"/>
      <path fill="none" d="M654.7656 448.2948 L654.7656 372.0259" clip-path="url(#clipPath2)"/>
      <path d="M654.7656 364.0259 L649.7656 376.0259 L654.7656 373.0259 L659.7656 376.0259 Z" clip-path="url(#clipPath2)" stroke="none"/>
    </g>
  </g>
</svg>
