<?xml version="1.0" encoding="UTF-8"?><svg xmlns="http://www.w3.org/2000/svg" xmlns:xlink="http://www.w3.org/1999/xlink" fill-opacity="1" color-rendering="auto" color-interpolation="auto" text-rendering="auto" stroke="black" stroke-linecap="square" width="885" stroke-miterlimit="10" shape-rendering="auto" stroke-opacity="1" fill="black" stroke-dasharray="none" font-weight="normal" stroke-width="1" height="611" font-family="'Dialog'" font-style="normal" stroke-linejoin="miter" font-size="12px" stroke-dashoffset="0" image-rendering="auto">
  <!--Generated by ySVG 2.5-->
  <defs id="genericDefs"/>
  <g>
    <defs id="defs1">
      <clipPath clipPathUnits="userSpaceOnUse" id="clipPath1">
        <path d="M0 0 L885 0 L885 611 L0 611 L0 0 Z"/>
      </clipPath>
      <clipPath clipPathUnits="userSpaceOnUse" id="clipPath2">
        <path d="M14 74 L899 74 L899 685 L14 685 L14 74 Z"/>
      </clipPath>
      <clipPath clipPathUnits="userSpaceOnUse" id="clipPath3">
        <path d="M10 70 L895 70 L895 681 L10 681 L10 70 Z"/>
      </clipPath>
    </defs>
    <g fill="white" text-rendering="geometricPrecision" shape-rendering="geometricPrecision" transform="translate(-14,-74)" stroke="white">
      <rect x="14" width="885" height="611" y="74" clip-path="url(#clipPath2)" stroke="none"/>
    </g>
    <g fill="rgb(245,245,245)" text-rendering="geometricPrecision" shape-rendering="geometricPrecision" transform="matrix(1,0,0,1,-14,-74)" stroke="rgb(245,245,245)">
      <rect x="29.9609" y="89.2988" clip-path="url(#clipPath2)" width="251.5" rx="4" ry="4" height="580.207" stroke="none"/>
      <rect x="29.9609" y="89.2988" clip-path="url(#clipPath2)" fill="rgb(235,235,235)" width="251.5" height="22.3765" stroke="none"/>
    </g>
    <g font-size="15px" stroke-linecap="butt" transform="matrix(1,0,0,1,-14,-74)" text-rendering="geometricPrecision" font-family="sans-serif" shape-rendering="geometricPrecision" stroke-miterlimit="1.45">
      <text x="176.9292" xml:space="preserve" y="106.3794" clip-path="url(#clipPath2)" stroke="none">(string) Context</text>
      <rect x="29.9609" y="89.2988" clip-path="url(#clipPath2)" fill="none" width="251.5" stroke-dasharray="6,2" rx="4" ry="4" height="580.207"/>
    </g>
    <g fill="rgb(210,210,210)" text-rendering="geometricPrecision" shape-rendering="geometricPrecision" transform="matrix(1,0,0,1,-14,-74) translate(4,4)" stroke="rgb(210,210,210)">
      <rect x="72.4609" width="190" height="240.0776" y="140.6753" clip-path="url(#clipPath3)" stroke="none"/>
    </g>
    <g fill="rgb(222,220,196)" text-rendering="geometricPrecision" shape-rendering="geometricPrecision" transform="matrix(1,0,0,1,-14,-74)" stroke="rgb(222,220,196)">
      <rect x="72.4609" width="190" height="240.0776" y="140.6753" clip-path="url(#clipPath2)" stroke="none"/>
      <rect x="72.4609" y="140.6753" clip-path="url(#clipPath2)" fill="rgb(0,204,255)" width="190" height="22.3765" stroke="none"/>
    </g>
    <g font-size="15px" stroke-linecap="butt" transform="matrix(1,0,0,1,-14,-74)" text-rendering="geometricPrecision" font-family="sans-serif" shape-rendering="geometricPrecision" font-weight="bold" stroke-miterlimit="1.45">
      <text x="226.3081" xml:space="preserve" y="157.7559" clip-path="url(#clipPath2)" stroke="none">Root</text>
      <rect fill="none" x="72.4609" width="190" height="240.0776" y="140.6753" clip-path="url(#clipPath2)"/>
    </g>
    <g fill="rgb(255,204,0)" text-rendering="geometricPrecision" shape-rendering="geometricPrecision" transform="matrix(1,0,0,1,-14,-74)" stroke="rgb(255,204,0)">
      <rect x="113.5" width="49" height="30" y="245.7529" clip-path="url(#clipPath2)" stroke="none"/>
    </g>
    <g text-rendering="geometricPrecision" stroke-miterlimit="1.45" shape-rendering="geometricPrecision" transform="matrix(1,0,0,1,-14,-74)" stroke-linecap="butt">
      <rect fill="none" x="113.5" width="49" height="30" y="245.7529" clip-path="url(#clipPath2)"/>
      <text x="126.6592" xml:space="preserve" y="265.4668" clip-path="url(#clipPath2)" font-family="sans-serif" stroke="none">sub/</text>
    </g>
    <g fill="rgb(255,204,0)" text-rendering="geometricPrecision" shape-rendering="geometricPrecision" transform="matrix(1,0,0,1,-14,-74)" stroke="rgb(255,204,0)">
      <rect x="134.5" width="65" height="30" y="290.7529" clip-path="url(#clipPath2)" stroke="none"/>
    </g>
    <g text-rendering="geometricPrecision" stroke-miterlimit="1.45" shape-rendering="geometricPrecision" transform="matrix(1,0,0,1,-14,-74)" stroke-linecap="butt">
      <rect fill="none" x="134.5" width="65" height="30" y="290.7529" clip-path="url(#clipPath2)"/>
      <text x="145.9854" xml:space="preserve" y="310.4668" clip-path="url(#clipPath2)" font-family="sans-serif" stroke="none">subsub/</text>
    </g>
    <g fill="rgb(255,204,0)" text-rendering="geometricPrecision" shape-rendering="geometricPrecision" transform="matrix(1,0,0,1,-14,-74)" stroke="rgb(255,204,0)">
      <rect x="113.5" width="49" height="30" y="335.7529" clip-path="url(#clipPath2)" stroke="none"/>
    </g>
    <g text-rendering="geometricPrecision" stroke-miterlimit="1.45" shape-rendering="geometricPrecision" transform="matrix(1,0,0,1,-14,-74)" stroke-linecap="butt">
      <rect fill="none" x="113.5" width="49" height="30" y="335.7529" clip-path="url(#clipPath2)"/>
      <text x="123.3223" xml:space="preserve" y="355.4668" clip-path="url(#clipPath2)" font-family="sans-serif" stroke="none">sub2/</text>
    </g>
    <g fill="rgb(255,204,0)" text-rendering="geometricPrecision" shape-rendering="geometricPrecision" transform="matrix(1,0,0,1,-14,-74)" stroke="rgb(255,204,0)">
      <rect x="89.4609" width="158" height="30" y="200.7529" clip-path="url(#clipPath2)" stroke="none"/>
    </g>
    <g text-rendering="geometricPrecision" stroke-miterlimit="1.45" shape-rendering="geometricPrecision" transform="matrix(1,0,0,1,-14,-74)" stroke-linecap="butt">
      <rect fill="none" x="89.4609" width="158" height="30" y="200.7529" clip-path="url(#clipPath2)"/>
      <text x="95.4609" xml:space="preserve" y="220.4668" clip-path="url(#clipPath2)" font-family="sans-serif" stroke="none">scheme://host/path/to/root/</text>
      <text x="95.4609" y="192.1162" clip-path="url(#clipPath2)" font-family="sans-serif" font-style="italic" stroke="none" font-weight="bold" xml:space="preserve">mountUri</text>
      <path fill="none" d="M113.5 275.7383 L113.5 305.7529 L134.459 305.7529" stroke-width="2" clip-path="url(#clipPath2)" stroke="rgb(153,51,102)"/>
      <path fill="none" d="M89.4609 230.7493 L89.4609 350.7529 L113.5 350.7529" stroke-width="2" clip-path="url(#clipPath2)" stroke="rgb(153,51,102)"/>
      <path fill="none" d="M89.4609 230.7383 L89.4609 260.7529 L113.5 260.7529" stroke-width="2" clip-path="url(#clipPath2)" stroke="rgb(153,51,102)"/>
      <path fill="none" d="M52.4609 140.6861 L52.4609 215.7529 L89.4756 215.7529" stroke-width="2" clip-path="url(#clipPath2)" stroke="rgb(153,51,102)"/>
    </g>
    <g fill="rgb(210,210,210)" text-rendering="geometricPrecision" shape-rendering="geometricPrecision" transform="matrix(1,0,0,1,-14,-74) translate(4,4)" stroke="rgb(210,210,210)">
      <rect x="72.4609" width="190" height="224.7529" y="425.7529" clip-path="url(#clipPath3)" stroke="none"/>
    </g>
    <g fill="rgb(222,220,196)" text-rendering="geometricPrecision" shape-rendering="geometricPrecision" transform="matrix(1,0,0,1,-14,-74)" stroke="rgb(222,220,196)">
      <rect x="72.4609" width="190" height="224.7529" y="425.7529" clip-path="url(#clipPath2)" stroke="none"/>
      <rect x="72.4609" y="425.7529" clip-path="url(#clipPath2)" fill="rgb(0,204,255)" width="190" height="22.3765" stroke="none"/>
    </g>
    <g font-size="15px" stroke-linecap="butt" transform="matrix(1,0,0,1,-14,-74)" text-rendering="geometricPrecision" font-family="sans-serif" shape-rendering="geometricPrecision" font-weight="bold" stroke-miterlimit="1.45">
      <text x="226.3081" xml:space="preserve" y="442.8335" clip-path="url(#clipPath2)" stroke="none">Root</text>
      <rect fill="none" x="72.4609" width="190" height="224.7529" y="425.7529" clip-path="url(#clipPath2)"/>
    </g>
    <g fill="rgb(255,204,0)" text-rendering="geometricPrecision" shape-rendering="geometricPrecision" transform="matrix(1,0,0,1,-14,-74)" stroke="rgb(255,204,0)">
      <rect x="109.4609" width="49" height="30" y="545.5059" clip-path="url(#clipPath2)" stroke="none"/>
    </g>
    <g text-rendering="geometricPrecision" stroke-miterlimit="1.45" shape-rendering="geometricPrecision" transform="matrix(1,0,0,1,-14,-74)" stroke-linecap="butt">
      <rect fill="none" x="109.4609" width="49" height="30" y="545.5059" clip-path="url(#clipPath2)"/>
      <text x="119.2832" xml:space="preserve" y="565.2197" clip-path="url(#clipPath2)" font-family="sans-serif" stroke="none">sub1/</text>
    </g>
    <g fill="rgb(255,204,0)" text-rendering="geometricPrecision" shape-rendering="geometricPrecision" transform="matrix(1,0,0,1,-14,-74)" stroke="rgb(255,204,0)">
      <rect x="109.4609" width="53.0391" height="30" y="590.5059" clip-path="url(#clipPath2)" stroke="none"/>
    </g>
    <g text-rendering="geometricPrecision" stroke-miterlimit="1.45" shape-rendering="geometricPrecision" transform="matrix(1,0,0,1,-14,-74)" stroke-linecap="butt">
      <rect fill="none" x="109.4609" width="53.0391" height="30" y="590.5059" clip-path="url(#clipPath2)"/>
      <text x="121.3027" xml:space="preserve" y="610.2197" clip-path="url(#clipPath2)" font-family="sans-serif" stroke="none">sub2/</text>
    </g>
    <g fill="rgb(255,204,0)" text-rendering="geometricPrecision" shape-rendering="geometricPrecision" transform="matrix(1,0,0,1,-14,-74)" stroke="rgb(255,204,0)">
      <rect x="89.4609" width="158" height="30" y="500.5059" clip-path="url(#clipPath2)" stroke="none"/>
    </g>
    <g text-rendering="geometricPrecision" stroke-miterlimit="1.45" shape-rendering="geometricPrecision" transform="matrix(1,0,0,1,-14,-74)" stroke-linecap="butt">
      <rect fill="none" x="89.4609" width="158" height="30" y="500.5059" clip-path="url(#clipPath2)"/>
      <text x="95.4609" xml:space="preserve" y="520.2197" clip-path="url(#clipPath2)" font-family="sans-serif" stroke="none">/other/root/path</text>
      <text x="95.4609" y="491.8691" clip-path="url(#clipPath2)" font-family="sans-serif" font-style="italic" stroke="none" font-weight="bold" xml:space="preserve">mountUri</text>
      <path fill="none" d="M51.9609 140.7134 L51.9609 515.5059 L89.4609 515.5059" stroke-width="2" clip-path="url(#clipPath2)" stroke="rgb(153,51,102)"/>
      <path fill="none" d="M89.4609 530.4912 L89.4609 605.5059 L109.4609 605.5059" stroke-width="2" clip-path="url(#clipPath2)" stroke="rgb(153,51,102)"/>
      <path fill="none" d="M89.4609 530.4912 L89.4609 560.5059 L109.4609 560.5059" stroke-width="2" clip-path="url(#clipPath2)" stroke="rgb(153,51,102)"/>
    </g>
    <g fill="rgb(210,210,210)" text-rendering="geometricPrecision" shape-rendering="geometricPrecision" transform="matrix(1,0,0,1,-14,-74) translate(4,4)" stroke="rgb(210,210,210)">
      <rect x="296.4609" width="190" height="82.3765" y="208.3765" clip-path="url(#clipPath3)" stroke="none"/>
    </g>
    <g fill="rgb(242,240,216)" text-rendering="geometricPrecision" shape-rendering="geometricPrecision" transform="matrix(1,0,0,1,-14,-74)" stroke="rgb(242,240,216)">
      <rect x="296.4609" width="190" height="82.3765" y="208.3765" clip-path="url(#clipPath2)" stroke="none"/>
      <rect x="296.4609" y="208.3765" clip-path="url(#clipPath2)" fill="rgb(0,204,255)" width="190" height="22.3765" stroke="none"/>
    </g>
    <g font-size="15px" stroke-linecap="butt" transform="matrix(1,0,0,1,-14,-74)" text-rendering="geometricPrecision" font-family="sans-serif" shape-rendering="geometricPrecision" font-weight="bold" stroke-miterlimit="1.45">
      <text x="453.626" xml:space="preserve" y="225.457" clip-path="url(#clipPath2)" stroke="none">Join</text>
      <rect fill="none" x="296.4609" width="190" height="82.3765" y="208.3765" clip-path="url(#clipPath2)"/>
    </g>
    <g fill="rgb(0,204,255)" text-rendering="geometricPrecision" shape-rendering="geometricPrecision" transform="matrix(1,0,0,1,-14,-74)" stroke="rgb(0,204,255)">
      <rect x="311.4609" width="65" height="30" y="245.7529" clip-path="url(#clipPath2)" stroke="none"/>
    </g>
    <g text-rendering="geometricPrecision" stroke-miterlimit="1.45" shape-rendering="geometricPrecision" transform="matrix(1,0,0,1,-14,-74)" stroke-linecap="butt">
      <rect fill="none" x="311.4609" width="65" height="30" y="245.7529" clip-path="url(#clipPath2)"/>
      <text x="316.6299" y="265.4668" clip-path="url(#clipPath2)" font-family="sans-serif" stroke="none" font-weight="bold" xml:space="preserve">JoinPoint</text>
    </g>
    <g fill="rgb(0,204,255)" text-rendering="geometricPrecision" shape-rendering="geometricPrecision" transform="matrix(1,0,0,1,-14,-74)" stroke="rgb(0,204,255)">
      <rect x="406.4609" width="65" height="30" y="245.7529" clip-path="url(#clipPath2)" stroke="none"/>
    </g>
    <g text-rendering="geometricPrecision" stroke-miterlimit="1.45" shape-rendering="geometricPrecision" transform="matrix(1,0,0,1,-14,-74)" stroke-linecap="butt">
      <rect fill="none" x="406.4609" width="65" height="30" y="245.7529" clip-path="url(#clipPath2)"/>
      <text x="411.6299" y="265.4668" clip-path="url(#clipPath2)" font-family="sans-serif" stroke="none" font-weight="bold" xml:space="preserve">JoinPoint</text>
      <path fill="none" d="M311.4425 260.7529 L220.0582 260.7529 L220.0582 260.7529 L170.5 260.7529" clip-path="url(#clipPath2)"/>
      <path d="M162.5 260.7529 L174.5 265.7529 L171.5 260.7529 L174.5 255.7529 Z" clip-path="url(#clipPath2)" stroke="none"/>
    </g>
    <g fill="rgb(210,210,210)" text-rendering="geometricPrecision" shape-rendering="geometricPrecision" transform="matrix(1,0,0,1,-14,-74) translate(4,4)" stroke="rgb(210,210,210)">
      <rect x="296.4609" width="190" height="82.3765" y="508.1294" clip-path="url(#clipPath3)" stroke="none"/>
    </g>
    <g fill="rgb(242,240,216)" text-rendering="geometricPrecision" shape-rendering="geometricPrecision" transform="matrix(1,0,0,1,-14,-74)" stroke="rgb(242,240,216)">
      <rect x="296.4609" width="190" height="82.3765" y="508.1294" clip-path="url(#clipPath2)" stroke="none"/>
      <rect x="296.4609" y="508.1294" clip-path="url(#clipPath2)" fill="rgb(0,204,255)" width="190" height="22.3765" stroke="none"/>
    </g>
    <g font-size="15px" stroke-linecap="butt" transform="matrix(1,0,0,1,-14,-74)" text-rendering="geometricPrecision" font-family="sans-serif" shape-rendering="geometricPrecision" font-weight="bold" stroke-miterlimit="1.45">
      <text x="453.626" xml:space="preserve" y="525.21" clip-path="url(#clipPath2)" stroke="none">Join</text>
      <rect fill="none" x="296.4609" width="190" height="82.3765" y="508.1294" clip-path="url(#clipPath2)"/>
    </g>
    <g fill="rgb(0,204,255)" text-rendering="geometricPrecision" shape-rendering="geometricPrecision" transform="matrix(1,0,0,1,-14,-74)" stroke="rgb(0,204,255)">
      <rect x="311.4609" width="65" height="30" y="545.5059" clip-path="url(#clipPath2)" stroke="none"/>
    </g>
    <g text-rendering="geometricPrecision" stroke-miterlimit="1.45" shape-rendering="geometricPrecision" transform="matrix(1,0,0,1,-14,-74)" stroke-linecap="butt">
      <rect fill="none" x="311.4609" width="65" height="30" y="545.5059" clip-path="url(#clipPath2)"/>
      <text x="316.6299" y="565.2197" clip-path="url(#clipPath2)" font-family="sans-serif" stroke="none" font-weight="bold" xml:space="preserve">JoinPoint</text>
    </g>
    <g fill="rgb(0,204,255)" text-rendering="geometricPrecision" shape-rendering="geometricPrecision" transform="matrix(1,0,0,1,-14,-74)" stroke="rgb(0,204,255)">
      <rect x="406.4609" width="65" height="30" y="545.5059" clip-path="url(#clipPath2)" stroke="none"/>
    </g>
    <g text-rendering="geometricPrecision" stroke-miterlimit="1.45" shape-rendering="geometricPrecision" transform="matrix(1,0,0,1,-14,-74)" stroke-linecap="butt">
      <rect fill="none" x="406.4609" width="65" height="30" y="545.5059" clip-path="url(#clipPath2)"/>
      <text x="411.6299" y="565.2197" clip-path="url(#clipPath2)" font-family="sans-serif" stroke="none" font-weight="bold" xml:space="preserve">JoinPoint</text>
      <path fill="none" d="M311.4609 560.5059 L166.4452 560.5059" clip-path="url(#clipPath2)"/>
      <path d="M158.4452 560.5059 L170.4452 565.5059 L167.4452 560.5059 L170.4452 555.5059 Z" clip-path="url(#clipPath2)" stroke="none"/>
    </g>
    <g fill="rgb(245,245,245)" text-rendering="geometricPrecision" shape-rendering="geometricPrecision" transform="matrix(1,0,0,1,-14,-74)" stroke="rgb(245,245,245)">
      <rect x="501.4609" y="89.2988" clip-path="url(#clipPath2)" width="382.1562" rx="4" ry="4" height="495.3765" stroke="none"/>
      <rect x="501.4609" y="89.2988" clip-path="url(#clipPath2)" fill="rgb(235,235,235)" width="382.1562" height="22.3765" stroke="none"/>
    </g>
    <g font-size="15px" stroke-linecap="butt" transform="matrix(1,0,0,1,-14,-74)" text-rendering="geometricPrecision" font-family="sans-serif" shape-rendering="geometricPrecision" stroke-miterlimit="1.45">
      <text x="779.0854" xml:space="preserve" y="106.3794" clip-path="url(#clipPath2)" stroke="none">(string) Context</text>
      <rect x="501.4609" y="89.2988" clip-path="url(#clipPath2)" fill="none" width="382.1562" stroke-dasharray="6,2" rx="4" ry="4" height="495.3765"/>
    </g>
    <g fill="rgb(210,210,210)" text-rendering="geometricPrecision" shape-rendering="geometricPrecision" transform="matrix(1,0,0,1,-14,-74) translate(4,4)" stroke="rgb(210,210,210)">
      <rect x="538.4609" width="241.0391" height="193.6035" y="140.6753" clip-path="url(#clipPath3)" stroke="none"/>
    </g>
    <g fill="rgb(222,220,196)" text-rendering="geometricPrecision" shape-rendering="geometricPrecision" transform="matrix(1,0,0,1,-14,-74)" stroke="rgb(222,220,196)">
      <rect x="538.4609" width="241.0391" height="193.6035" y="140.6753" clip-path="url(#clipPath2)" stroke="none"/>
      <rect x="538.4609" y="140.6753" clip-path="url(#clipPath2)" fill="rgb(0,204,255)" width="241.0391" height="22.3765" stroke="none"/>
    </g>
    <g font-size="15px" stroke-linecap="butt" transform="matrix(1,0,0,1,-14,-74)" text-rendering="geometricPrecision" font-family="sans-serif" shape-rendering="geometricPrecision" font-weight="bold" stroke-miterlimit="1.45">
      <text x="743.3472" xml:space="preserve" y="157.7559" clip-path="url(#clipPath2)" stroke="none">Root</text>
      <rect fill="none" x="538.4609" width="241.0391" height="193.6035" y="140.6753" clip-path="url(#clipPath2)"/>
    </g>
    <g fill="rgb(255,204,0)" text-rendering="geometricPrecision" shape-rendering="geometricPrecision" transform="matrix(1,0,0,1,-14,-74)" stroke="rgb(255,204,0)">
      <rect x="600.5391" width="49" height="30" y="245.7529" clip-path="url(#clipPath2)" stroke="none"/>
    </g>
    <g text-rendering="geometricPrecision" stroke-miterlimit="1.45" shape-rendering="geometricPrecision" transform="matrix(1,0,0,1,-14,-74)" stroke-linecap="butt">
      <rect fill="none" x="600.5391" width="49" height="30" y="245.7529" clip-path="url(#clipPath2)"/>
      <text x="610.3613" xml:space="preserve" y="265.4668" clip-path="url(#clipPath2)" font-family="sans-serif" stroke="none">sub1/</text>
    </g>
    <g fill="rgb(255,204,0)" text-rendering="geometricPrecision" shape-rendering="geometricPrecision" transform="matrix(1,0,0,1,-14,-74)" stroke="rgb(255,204,0)">
      <rect x="576.5" width="158" height="30" y="200.7529" clip-path="url(#clipPath2)" stroke="none"/>
    </g>
    <g text-rendering="geometricPrecision" stroke-miterlimit="1.45" shape-rendering="geometricPrecision" transform="matrix(1,0,0,1,-14,-74)" stroke-linecap="butt">
      <rect fill="none" x="576.5" width="158" height="30" y="200.7529" clip-path="url(#clipPath2)"/>
      <text x="582.5" xml:space="preserve" y="220.4668" clip-path="url(#clipPath2)" font-family="sans-serif" stroke="none">/other/context/root/path</text>
      <text x="582.5" y="192.1162" clip-path="url(#clipPath2)" font-family="sans-serif" font-style="italic" stroke="none" font-weight="bold" xml:space="preserve">mountUri</text>
    </g>
    <g fill="rgb(255,204,0)" text-rendering="geometricPrecision" shape-rendering="geometricPrecision" transform="matrix(1,0,0,1,-14,-74)" stroke="rgb(255,204,0)">
      <rect x="623.5781" width="65" height="30" y="289.2788" clip-path="url(#clipPath2)" stroke="none"/>
    </g>
    <g text-rendering="geometricPrecision" stroke-miterlimit="1.45" shape-rendering="geometricPrecision" transform="matrix(1,0,0,1,-14,-74)" stroke-linecap="butt">
      <rect fill="none" x="623.5781" width="65" height="30" y="289.2788" clip-path="url(#clipPath2)"/>
      <text x="635.0635" xml:space="preserve" y="308.9927" clip-path="url(#clipPath2)" font-family="sans-serif" stroke="none">subsub/</text>
      <path fill="none" d="M471.4609 260.7529 L570 260.7529 L592.5391 260.7529" clip-path="url(#clipPath2)"/>
      <path d="M600.5391 260.7529 L588.5391 255.7529 L591.5391 260.7529 L588.5391 265.7529 Z" clip-path="url(#clipPath2)" stroke="none"/>
      <path fill="none" d="M517.9609 140.6888 L517.9609 215.7529 L576.4889 215.7529" stroke-width="2" clip-path="url(#clipPath2)" stroke="rgb(153,51,102)"/>
      <path fill="none" d="M576.5 230.7383 L576.5 260.7529 L600.5391 260.7529" stroke-width="2" clip-path="url(#clipPath2)" stroke="rgb(153,51,102)"/>
      <path fill="none" d="M600.5391 275.7574 L600.5391 304.2788 L623.5781 304.2788" stroke-width="2" clip-path="url(#clipPath2)" stroke="rgb(153,51,102)"/>
    </g>
    <g fill="rgb(210,210,210)" text-rendering="geometricPrecision" shape-rendering="geometricPrecision" transform="matrix(1,0,0,1,-14,-74) translate(4,4)" stroke="rgb(210,210,210)">
      <rect x="623.5781" width="241.0391" height="149.0776" y="364.2788" clip-path="url(#clipPath3)" stroke="none"/>
    </g>
    <g fill="rgb(222,220,196)" text-rendering="geometricPrecision" shape-rendering="geometricPrecision" transform="matrix(1,0,0,1,-14,-74)" stroke="rgb(222,220,196)">
      <rect x="623.5781" width="241.0391" height="149.0776" y="364.2788" clip-path="url(#clipPath2)" stroke="none"/>
      <rect x="623.5781" y="364.2788" clip-path="url(#clipPath2)" fill="rgb(0,204,255)" width="241.0391" height="22.3765" stroke="none"/>
    </g>
    <g font-size="15px" stroke-linecap="butt" transform="matrix(1,0,0,1,-14,-74)" text-rendering="geometricPrecision" font-family="sans-serif" shape-rendering="geometricPrecision" font-weight="bold" stroke-miterlimit="1.45">
      <text x="828.4644" xml:space="preserve" y="381.3594" clip-path="url(#clipPath2)" stroke="none">Root</text>
      <rect fill="none" x="623.5781" width="241.0391" height="149.0776" y="364.2788" clip-path="url(#clipPath2)"/>
    </g>
    <g fill="rgb(255,204,0)" text-rendering="geometricPrecision" shape-rendering="geometricPrecision" transform="matrix(1,0,0,1,-14,-74)" stroke="rgb(255,204,0)">
      <rect x="662.6172" width="89.4023" height="30" y="468.3564" clip-path="url(#clipPath2)" stroke="none"/>
    </g>
    <g text-rendering="geometricPrecision" stroke-miterlimit="1.45" shape-rendering="geometricPrecision" transform="matrix(1,0,0,1,-14,-74)" stroke-linecap="butt">
      <rect fill="none" x="662.6172" width="89.4023" height="30" y="468.3564" clip-path="url(#clipPath2)"/>
      <text x="675.9648" xml:space="preserve" y="488.0703" clip-path="url(#clipPath2)" font-family="sans-serif" stroke="none">subrootsub/</text>
    </g>
    <g fill="rgb(255,204,0)" text-rendering="geometricPrecision" shape-rendering="geometricPrecision" transform="matrix(1,0,0,1,-14,-74)" stroke="rgb(255,204,0)">
      <rect x="638.5781" width="211.0391" height="30" y="424.3564" clip-path="url(#clipPath2)" stroke="none"/>
    </g>
    <g text-rendering="geometricPrecision" stroke-miterlimit="1.45" shape-rendering="geometricPrecision" transform="matrix(1,0,0,1,-14,-74)" stroke-linecap="butt">
      <rect fill="none" x="638.5781" width="211.0391" height="30" y="424.3564" clip-path="url(#clipPath2)"/>
      <text x="644.5781" xml:space="preserve" y="444.0703" clip-path="url(#clipPath2)" font-family="sans-serif" stroke="none">/other/context/root/path/sub1/subroot</text>
      <text x="644.5781" y="415.7197" clip-path="url(#clipPath2)" font-family="sans-serif" font-style="italic" stroke="none" font-weight="bold" xml:space="preserve">mountUri</text>
      <path fill="none" d="M471.4609 560.5059 L518 560.5059 L566 483.3564 L654.6172 483.3564" clip-path="url(#clipPath2)"/>
      <path d="M662.6172 483.3564 L650.6172 478.3564 L653.6172 483.3564 L650.6172 488.3564 Z" clip-path="url(#clipPath2)" stroke="none"/>
      <path fill="none" d="M600.5391 275.7964 L600.5391 439.3564 L638.5781 439.3564" stroke-width="2" clip-path="url(#clipPath2)" stroke="rgb(153,51,102)"/>
      <path fill="none" d="M638.5781 454.3525 L638.5781 483.3564 L662.6172 483.3564" stroke-width="2" clip-path="url(#clipPath2)" stroke="rgb(153,51,102)"/>
    </g>
  </g>
</svg>
